<svg width="18" height="13" viewBox="0 0 18 13" fill="none" xmlns="http://www.w3.org/2000/svg">
<path d="M1.52561 5.64716C1.57902 4.83285 1.6061 4.42503 1.83585 4.03338C2.06917 3.65441 2.42106 3.34902 2.84561 3.15707C3.28537 2.97034 3.78805 2.97034 4.79268 2.97034C5.16732 2.97034 5.35463 2.97034 5.5361 2.94203C5.71558 2.91403 5.89058 2.86558 6.05707 2.79778C6.22537 2.72969 6.38195 2.63465 6.69439 2.44455L6.85537 2.34748C8.71463 1.21703 9.64537 0.651472 10.4268 0.897515C10.5768 0.944702 10.7217 1.01211 10.8512 1.09637C11.5259 1.53318 11.5778 2.55038 11.6802 4.58412C11.7136 5.16925 11.7348 5.75491 11.7439 6.34079C11.7439 6.69941 11.7183 7.34384 11.6802 8.0968C11.5778 10.1312 11.5266 11.1477 10.8512 11.5852C10.7206 11.6696 10.5778 11.7365 10.4268 11.7841C9.6461 12.0294 8.71537 11.4646 6.85463 10.3341L6.69512 10.237C6.38268 10.0469 6.22683 9.9519 6.0578 9.88314C5.89128 9.81557 5.71628 9.76734 5.53683 9.73956C5.35463 9.71125 5.16732 9.71125 4.79268 9.71125C3.78732 9.71125 3.28537 9.71125 2.84634 9.52452C2.42152 9.33267 2.06937 9.02728 1.83585 8.64821C1.6061 8.25589 1.57976 7.84873 1.52561 7.03376C1.50954 6.80306 1.501 6.57197 1.5 6.34079C1.5 6.12306 1.50951 5.88848 1.52561 5.64716Z" stroke="white" stroke-width="1.25"/>
<path d="M16.5 4.99261L13.5732 7.68898M13.5732 4.99261L16.5 7.68898" stroke="white" stroke-width="1.25" stroke-linecap="round"/>
</svg>
