<svg width="17" height="14" viewBox="0 0 17 14" fill="none" xmlns="http://www.w3.org/2000/svg">
<path d="M14.3496 3.76241C15.3498 4.48952 16.0001 5.6688 16.0001 7C16.0001 8.3312 15.3498 9.5105 14.3496 10.2376M6.2813 9.9347L9.3473 12.5761C9.9955 13.1346 11 12.6741 11 11.8185V2.1815C11 1.32596 9.9955 0.865471 9.3473 1.42389L6.2813 4.06532C6.0998 4.2217 5.86822 4.30771 5.62864 4.30771H3C1.89543 4.30771 1 5.2031 1 6.3077V7.6923C1 8.7969 1.89543 9.6923 3 9.6923H5.62864C5.86822 9.6923 6.0998 9.7783 6.2813 9.9347Z" stroke="white" stroke-width="1.25" stroke-linecap="round"/>
</svg>
